<svg width="48" height="48" viewBox="0 0 48 48" fill="none" xmlns="http://www.w3.org/2000/svg">
<g id="icon">
<rect x="0.5" y="0.5" width="47" height="47" rx="3.5" fill="#121214"/>
<rect x="0.5" y="0.5" width="47" height="47" rx="3.5" fill="url(#paint0_linear_833_107)"/>
<g id="Emoji">
<path id="Vector" d="M35.04 16.4391L33.1152 18.3646C33.1152 18.3646 31.8314 19.0062 30.5482 17.7223C29.2643 16.4391 29.9059 15.1553 29.9059 15.1553L31.8314 13.2298C32.4736 12.5882 31.7022 12 31.1231 12C28.2795 12 25.975 14.3045 25.975 17.1474C25.975 17.5468 26.0255 17.9343 26.1112 18.3077L21.7598 22.6591L25.61 26.5093L29.9614 22.1586C30.3355 22.2442 30.7223 22.2948 31.1224 22.2948C33.9653 22.2948 36.2698 19.9903 36.2698 17.1474C36.2705 16.5648 35.6816 15.7975 35.04 16.4391ZM21.684 22.7847L13.1279 31.3401C12.0785 32.3902 12.0785 34.0924 13.1279 35.1425C14.1788 36.192 15.8803 36.192 16.9304 35.1425L25.485 26.5872L21.684 22.7847ZM15.0457 34.3486C14.4708 34.3486 14.0054 33.8825 14.0054 33.3084C14.0054 32.7342 14.4715 32.2674 15.0457 32.2674C15.6206 32.2674 16.086 32.7335 16.086 33.3084C16.086 33.8825 15.6206 34.3486 15.0457 34.3486Z" fill="#8899A6"/>
<path id="Vector_2" d="M32.6414 35.3602C33.4599 36.1786 34.7627 36.2172 35.5341 35.4451C36.3063 34.6729 36.2677 33.3708 35.4492 32.5524L19.1184 16.2215C18.2992 15.4023 16.9978 15.3644 16.2256 16.1366C15.4535 16.9087 15.4921 18.2108 16.3106 19.0293L32.6414 35.3602Z" fill="#F4900C"/>
<path id="Vector_3" d="M26.0529 12.627C26.0529 12.627 21.8412 10.5212 18.3315 14.0309L13.4178 18.9446C13.4178 18.9446 12.7159 18.2426 12.0139 18.9446L11.312 19.6465C11.312 19.6465 10.61 20.3485 11.312 21.0504L14.1198 23.8582C14.1198 23.8582 14.8217 24.5601 15.5237 23.8582L16.2256 23.1563C16.2256 23.1563 16.9276 22.4543 16.2256 21.7524L16.1709 21.6976C16.7114 21.1761 17.5207 20.6447 18.3315 21.0504L21.1393 18.2426C21.1393 18.2426 20.4373 16.1368 21.8412 14.7329C23.2451 13.329 23.9471 13.329 25.351 13.329C26.7548 13.329 26.0529 12.627 26.0529 12.627Z" fill="#66757F"/>
</g>
<rect x="0.5" y="0.5" width="47" height="47" rx="3.5" stroke="url(#paint1_linear_833_107)"/>
</g>
<defs>
<linearGradient id="paint0_linear_833_107" x1="24" y1="0" x2="24" y2="48" gradientUnits="userSpaceOnUse">
<stop stop-color="#202024"/>
<stop offset="1" stop-color="#202024" stop-opacity="0.2"/>
</linearGradient>
<linearGradient id="paint1_linear_833_107" x1="24" y1="0" x2="24" y2="48" gradientUnits="userSpaceOnUse">
<stop stop-color="#323238"/>
<stop offset="1" stop-color="#323238" stop-opacity="0.3"/>
</linearGradient>
</defs>
</svg>
