<svg width="48" height="48" viewBox="0 0 48 48" fill="none" xmlns="http://www.w3.org/2000/svg">
<g id="icon">
<rect x="0.5" y="0.5" width="47" height="47" rx="3.5" fill="#121214"/>
<rect x="0.5" y="0.5" width="47" height="47" rx="3.5" fill="url(#paint0_linear_833_96)"/>
<g id="Emoji">
<path id="Vector" d="M12.0186 23.6572L17.5043 18.8572L28.4757 19.5429L29.1614 30.5143L24.3614 36C24.3614 36 24.3621 31.8864 20.2471 27.7715C16.1322 23.6565 12.0186 23.6572 12.0186 23.6572Z" fill="#A0041E"/>
<path id="Vector_2" d="M12 35.9999C12 35.9999 11.9753 30.5285 14.0469 28.457C16.1184 26.3855 21.6185 26.5281 21.6185 26.5281C21.6185 26.5281 21.6178 31.8856 19.5607 33.9427C17.5036 35.9999 12 35.9999 12 35.9999Z" fill="#FFAC33"/>
<path id="Vector_3" d="M17.5036 33.2572C19.0184 33.2572 20.2465 32.0292 20.2465 30.5143C20.2465 28.9995 19.0184 27.7715 17.5036 27.7715C15.9888 27.7715 14.7607 28.9995 14.7607 30.5143C14.7607 32.0292 15.9888 33.2572 17.5036 33.2572Z" fill="#FFCC4D"/>
<path id="Vector_4" d="M36.0178 12C36.0178 12 29.1607 12 20.9321 18.8571C16.8178 22.2857 16.8178 28.4571 18.1892 29.8286C19.5607 31.2 25.7321 31.2 29.1607 27.0857C36.0178 18.8571 36.0178 12 36.0178 12Z" fill="#55ACEE"/>
<path id="Vector_5" d="M29.8464 15.4286C28.7335 15.4286 27.7804 16.0944 27.3497 17.0469C27.694 16.8912 28.0732 16.8 28.475 16.8C29.9897 16.8 31.2178 18.0281 31.2178 19.5429C31.2178 19.9447 31.1266 20.3239 30.9717 20.6674C31.9241 20.2375 32.5893 19.2844 32.5893 18.1714C32.5893 16.6567 31.3612 15.4286 29.8464 15.4286Z" fill="black"/>
<path id="Vector_6" d="M16.8185 31.2C16.8185 31.2 16.8185 28.4571 17.5042 27.7714C18.1899 27.0857 26.4192 20.2292 27.1042 20.9143C27.7892 21.5993 20.9321 29.8285 20.2464 30.5142C19.5607 31.2 16.8185 31.2 16.8185 31.2Z" fill="#A0041E"/>
</g>
<rect x="0.5" y="0.5" width="47" height="47" rx="3.5" stroke="url(#paint1_linear_833_96)"/>
</g>
<defs>
<linearGradient id="paint0_linear_833_96" x1="24" y1="0" x2="24" y2="48" gradientUnits="userSpaceOnUse">
<stop stop-color="#202024"/>
<stop offset="1" stop-color="#202024" stop-opacity="0.2"/>
</linearGradient>
<linearGradient id="paint1_linear_833_96" x1="24" y1="0" x2="24" y2="48" gradientUnits="userSpaceOnUse">
<stop stop-color="#323238"/>
<stop offset="1" stop-color="#323238" stop-opacity="0.3"/>
</linearGradient>
</defs>
</svg>
